<mxfile host="app.diagrams.net" modified="2024-04-04T01:59:04.502Z" agent="Mozilla/5.0 (Windows NT 10.0; Win64; x64) AppleWebKit/537.36 (KHTML, like Gecko) Chrome/123.0.0.0 Safari/537.36 Edg/123.0.0.0" etag="gG217c6fxlxG96d26-Ql" version="24.2.1" type="device">
  <diagram id="IW5y98_MCMLlNwBdxmZi" name="http状态机">
    <mxGraphModel dx="3401" dy="1782" grid="0" gridSize="10" guides="1" tooltips="1" connect="1" arrows="1" fold="1" page="0" pageScale="1" pageWidth="4681" pageHeight="3300" background="#FFFFFF" math="0" shadow="0">
      <root>
        <mxCell id="0" />
        <mxCell id="1" parent="0" />
        <mxCell id="bEj7zJRo_uIAJZZjoGcf-96" value="" style="rounded=1;whiteSpace=wrap;html=1;" parent="1" vertex="1">
          <mxGeometry x="-595.5" y="-78" width="2437" height="706" as="geometry" />
        </mxCell>
        <mxCell id="bEj7zJRo_uIAJZZjoGcf-1" value="" style="rounded=1;whiteSpace=wrap;html=1;" parent="1" vertex="1">
          <mxGeometry x="-573" y="295" width="525" height="275" as="geometry" />
        </mxCell>
        <mxCell id="bEj7zJRo_uIAJZZjoGcf-2" value="&lt;b&gt;LINE_OPEN&lt;/b&gt;" style="rounded=1;whiteSpace=wrap;html=1;" parent="1" vertex="1">
          <mxGeometry x="-470" y="341" width="101" height="52" as="geometry" />
        </mxCell>
        <mxCell id="bEj7zJRo_uIAJZZjoGcf-3" value="" style="endArrow=classic;html=1;rounded=0;" parent="1" edge="1">
          <mxGeometry width="50" height="50" relative="1" as="geometry">
            <mxPoint x="-366" y="368" as="sourcePoint" />
            <mxPoint x="-208" y="368" as="targetPoint" />
          </mxGeometry>
        </mxCell>
        <mxCell id="bEj7zJRo_uIAJZZjoGcf-4" value="&lt;b&gt;报文语法有误&lt;/b&gt;" style="text;html=1;align=center;verticalAlign=middle;resizable=0;points=[];autosize=1;strokeColor=none;fillColor=none;" parent="1" vertex="1">
          <mxGeometry x="-333" y="338" width="90" height="26" as="geometry" />
        </mxCell>
        <mxCell id="bEj7zJRo_uIAJZZjoGcf-5" value="LINE_BAD" style="rounded=1;whiteSpace=wrap;html=1;fontStyle=1" parent="1" vertex="1">
          <mxGeometry x="-207" y="341" width="101" height="52" as="geometry" />
        </mxCell>
        <mxCell id="bEj7zJRo_uIAJZZjoGcf-6" value="" style="endArrow=classic;html=1;rounded=0;" parent="1" edge="1">
          <mxGeometry width="50" height="50" relative="1" as="geometry">
            <mxPoint x="-438" y="393" as="sourcePoint" />
            <mxPoint x="-436" y="489" as="targetPoint" />
          </mxGeometry>
        </mxCell>
        <mxCell id="bEj7zJRo_uIAJZZjoGcf-7" value="" style="endArrow=classic;html=1;rounded=0;" parent="1" edge="1">
          <mxGeometry width="50" height="50" relative="1" as="geometry">
            <mxPoint x="-393" y="489" as="sourcePoint" />
            <mxPoint x="-395" y="393" as="targetPoint" />
          </mxGeometry>
        </mxCell>
        <mxCell id="bEj7zJRo_uIAJZZjoGcf-8" value="&lt;b&gt;读取到 \r \n字符&lt;/b&gt;" style="text;html=1;align=center;verticalAlign=middle;resizable=0;points=[];autosize=1;strokeColor=none;fillColor=none;" parent="1" vertex="1">
          <mxGeometry x="-541" y="425" width="103" height="26" as="geometry" />
        </mxCell>
        <mxCell id="bEj7zJRo_uIAJZZjoGcf-10" value="&lt;b&gt;新数据到达&lt;/b&gt;" style="text;html=1;align=center;verticalAlign=middle;resizable=0;points=[];autosize=1;strokeColor=none;fillColor=none;" parent="1" vertex="1">
          <mxGeometry x="-387" y="429" width="78" height="26" as="geometry" />
        </mxCell>
        <mxCell id="bEj7zJRo_uIAJZZjoGcf-11" value="&lt;b&gt;LINE_OK&lt;/b&gt;" style="rounded=1;whiteSpace=wrap;html=1;" parent="1" vertex="1">
          <mxGeometry x="-470" y="487" width="101" height="52" as="geometry" />
        </mxCell>
        <mxCell id="bEj7zJRo_uIAJZZjoGcf-12" value="&lt;b&gt;prase_line函数&lt;/b&gt;" style="rounded=1;whiteSpace=wrap;html=1;" parent="1" vertex="1">
          <mxGeometry x="-213" y="478" width="108" height="36" as="geometry" />
        </mxCell>
        <mxCell id="bEj7zJRo_uIAJZZjoGcf-13" value="&lt;b&gt;从状态机&lt;/b&gt;" style="text;html=1;align=center;verticalAlign=middle;resizable=0;points=[];autosize=1;strokeColor=none;fillColor=none;" parent="1" vertex="1">
          <mxGeometry x="-198" y="447" width="66" height="26" as="geometry" />
        </mxCell>
        <mxCell id="bEj7zJRo_uIAJZZjoGcf-38" value="" style="rounded=1;whiteSpace=wrap;html=1;" parent="1" vertex="1">
          <mxGeometry x="215" y="295" width="525" height="275" as="geometry" />
        </mxCell>
        <mxCell id="bEj7zJRo_uIAJZZjoGcf-39" value="&lt;b&gt;LINE_OPEN&lt;/b&gt;" style="rounded=1;whiteSpace=wrap;html=1;" parent="1" vertex="1">
          <mxGeometry x="318" y="341" width="101" height="52" as="geometry" />
        </mxCell>
        <mxCell id="bEj7zJRo_uIAJZZjoGcf-40" value="" style="endArrow=classic;html=1;rounded=0;" parent="1" edge="1">
          <mxGeometry width="50" height="50" relative="1" as="geometry">
            <mxPoint x="422" y="368" as="sourcePoint" />
            <mxPoint x="580" y="368" as="targetPoint" />
          </mxGeometry>
        </mxCell>
        <mxCell id="bEj7zJRo_uIAJZZjoGcf-41" value="&lt;b&gt;报文语法有误&lt;/b&gt;" style="text;html=1;align=center;verticalAlign=middle;resizable=0;points=[];autosize=1;strokeColor=none;fillColor=none;" parent="1" vertex="1">
          <mxGeometry x="455" y="338" width="90" height="26" as="geometry" />
        </mxCell>
        <mxCell id="bEj7zJRo_uIAJZZjoGcf-42" value="&lt;b&gt;LINE_BAD&lt;/b&gt;" style="rounded=1;whiteSpace=wrap;html=1;" parent="1" vertex="1">
          <mxGeometry x="581" y="341" width="101" height="52" as="geometry" />
        </mxCell>
        <mxCell id="bEj7zJRo_uIAJZZjoGcf-43" value="" style="endArrow=classic;html=1;rounded=0;" parent="1" edge="1">
          <mxGeometry width="50" height="50" relative="1" as="geometry">
            <mxPoint x="350" y="393" as="sourcePoint" />
            <mxPoint x="352" y="489" as="targetPoint" />
          </mxGeometry>
        </mxCell>
        <mxCell id="bEj7zJRo_uIAJZZjoGcf-44" value="" style="endArrow=classic;html=1;rounded=0;" parent="1" edge="1">
          <mxGeometry width="50" height="50" relative="1" as="geometry">
            <mxPoint x="395" y="489" as="sourcePoint" />
            <mxPoint x="393" y="393" as="targetPoint" />
          </mxGeometry>
        </mxCell>
        <mxCell id="bEj7zJRo_uIAJZZjoGcf-45" value="&lt;b&gt;读取到 \r \n字符&lt;/b&gt;" style="text;html=1;align=center;verticalAlign=middle;resizable=0;points=[];autosize=1;strokeColor=none;fillColor=none;" parent="1" vertex="1">
          <mxGeometry x="247" y="425" width="103" height="26" as="geometry" />
        </mxCell>
        <mxCell id="bEj7zJRo_uIAJZZjoGcf-46" value="&lt;b&gt;新数据到达&lt;/b&gt;" style="text;html=1;align=center;verticalAlign=middle;resizable=0;points=[];autosize=1;strokeColor=none;fillColor=none;" parent="1" vertex="1">
          <mxGeometry x="401" y="429" width="78" height="26" as="geometry" />
        </mxCell>
        <mxCell id="bEj7zJRo_uIAJZZjoGcf-47" value="&lt;b&gt;LINE_OK&lt;/b&gt;" style="rounded=1;whiteSpace=wrap;html=1;" parent="1" vertex="1">
          <mxGeometry x="318" y="487" width="101" height="52" as="geometry" />
        </mxCell>
        <mxCell id="bEj7zJRo_uIAJZZjoGcf-48" value="&lt;b&gt;prase_line函数&lt;/b&gt;" style="rounded=1;whiteSpace=wrap;html=1;" parent="1" vertex="1">
          <mxGeometry x="575" y="478" width="108" height="36" as="geometry" />
        </mxCell>
        <mxCell id="bEj7zJRo_uIAJZZjoGcf-49" value="&lt;b&gt;从状态机&lt;/b&gt;" style="text;html=1;align=center;verticalAlign=middle;resizable=0;points=[];autosize=1;strokeColor=none;fillColor=none;" parent="1" vertex="1">
          <mxGeometry x="590" y="447" width="66" height="26" as="geometry" />
        </mxCell>
        <mxCell id="bEj7zJRo_uIAJZZjoGcf-50" value="" style="rounded=1;whiteSpace=wrap;html=1;" parent="1" vertex="1">
          <mxGeometry x="997" y="300.5" width="525" height="275" as="geometry" />
        </mxCell>
        <mxCell id="bEj7zJRo_uIAJZZjoGcf-51" value="&lt;b&gt;LINE_OPEN&lt;/b&gt;" style="rounded=1;whiteSpace=wrap;html=1;" parent="1" vertex="1">
          <mxGeometry x="1100" y="346.5" width="101" height="52" as="geometry" />
        </mxCell>
        <mxCell id="bEj7zJRo_uIAJZZjoGcf-52" value="" style="endArrow=classic;html=1;rounded=0;" parent="1" edge="1">
          <mxGeometry width="50" height="50" relative="1" as="geometry">
            <mxPoint x="1204" y="373.5" as="sourcePoint" />
            <mxPoint x="1362" y="373.5" as="targetPoint" />
          </mxGeometry>
        </mxCell>
        <mxCell id="bEj7zJRo_uIAJZZjoGcf-53" value="&lt;b&gt;报文语法有误&lt;/b&gt;" style="text;html=1;align=center;verticalAlign=middle;resizable=0;points=[];autosize=1;strokeColor=none;fillColor=none;" parent="1" vertex="1">
          <mxGeometry x="1237" y="343.5" width="90" height="26" as="geometry" />
        </mxCell>
        <mxCell id="bEj7zJRo_uIAJZZjoGcf-54" value="&lt;b&gt;LINE_BAD&lt;/b&gt;" style="rounded=1;whiteSpace=wrap;html=1;" parent="1" vertex="1">
          <mxGeometry x="1363" y="346.5" width="101" height="52" as="geometry" />
        </mxCell>
        <mxCell id="bEj7zJRo_uIAJZZjoGcf-55" value="" style="endArrow=classic;html=1;rounded=0;" parent="1" edge="1">
          <mxGeometry width="50" height="50" relative="1" as="geometry">
            <mxPoint x="1132" y="398.5" as="sourcePoint" />
            <mxPoint x="1134" y="494.5" as="targetPoint" />
          </mxGeometry>
        </mxCell>
        <mxCell id="bEj7zJRo_uIAJZZjoGcf-56" value="" style="endArrow=classic;html=1;rounded=0;" parent="1" edge="1">
          <mxGeometry width="50" height="50" relative="1" as="geometry">
            <mxPoint x="1177" y="494.5" as="sourcePoint" />
            <mxPoint x="1175" y="398.5" as="targetPoint" />
          </mxGeometry>
        </mxCell>
        <mxCell id="bEj7zJRo_uIAJZZjoGcf-57" value="&lt;b&gt;读取到 \r \n字符&lt;/b&gt;" style="text;html=1;align=center;verticalAlign=middle;resizable=0;points=[];autosize=1;strokeColor=none;fillColor=none;" parent="1" vertex="1">
          <mxGeometry x="1029" y="430.5" width="103" height="26" as="geometry" />
        </mxCell>
        <mxCell id="bEj7zJRo_uIAJZZjoGcf-58" value="&lt;b&gt;新数据到达&lt;/b&gt;" style="text;html=1;align=center;verticalAlign=middle;resizable=0;points=[];autosize=1;strokeColor=none;fillColor=none;" parent="1" vertex="1">
          <mxGeometry x="1183" y="434.5" width="78" height="26" as="geometry" />
        </mxCell>
        <mxCell id="bEj7zJRo_uIAJZZjoGcf-59" value="LINE_OK" style="rounded=1;whiteSpace=wrap;html=1;fontStyle=1" parent="1" vertex="1">
          <mxGeometry x="1100" y="492.5" width="101" height="52" as="geometry" />
        </mxCell>
        <mxCell id="bEj7zJRo_uIAJZZjoGcf-60" value="&lt;b&gt;prase_line函数&lt;/b&gt;" style="rounded=1;whiteSpace=wrap;html=1;" parent="1" vertex="1">
          <mxGeometry x="1357" y="483.5" width="108" height="36" as="geometry" />
        </mxCell>
        <mxCell id="bEj7zJRo_uIAJZZjoGcf-61" value="&lt;b&gt;从状态机&lt;/b&gt;" style="text;html=1;align=center;verticalAlign=middle;resizable=0;points=[];autosize=1;strokeColor=none;fillColor=none;" parent="1" vertex="1">
          <mxGeometry x="1372" y="452.5" width="66" height="26" as="geometry" />
        </mxCell>
        <mxCell id="bEj7zJRo_uIAJZZjoGcf-62" value="" style="endArrow=classic;html=1;rounded=0;" parent="1" edge="1">
          <mxGeometry width="50" height="50" relative="1" as="geometry">
            <mxPoint x="-317" y="282" as="sourcePoint" />
            <mxPoint x="-317" y="134" as="targetPoint" />
          </mxGeometry>
        </mxCell>
        <mxCell id="bEj7zJRo_uIAJZZjoGcf-63" value="&lt;b&gt;读取一行数据&lt;/b&gt;" style="text;html=1;align=center;verticalAlign=middle;resizable=0;points=[];autosize=1;strokeColor=none;fillColor=none;" parent="1" vertex="1">
          <mxGeometry x="-431" y="201" width="90" height="26" as="geometry" />
        </mxCell>
        <mxCell id="bEj7zJRo_uIAJZZjoGcf-64" value="&lt;b&gt;LINE_OK&lt;/b&gt;" style="text;html=1;align=center;verticalAlign=middle;resizable=0;points=[];autosize=1;strokeColor=none;fillColor=none;" parent="1" vertex="1">
          <mxGeometry x="-296" y="201" width="70" height="26" as="geometry" />
        </mxCell>
        <mxCell id="bEj7zJRo_uIAJZZjoGcf-65" value="&lt;b&gt;CHECK_STATE_REQUESTLINE&lt;/b&gt;" style="rounded=1;whiteSpace=wrap;html=1;" parent="1" vertex="1">
          <mxGeometry x="-413" y="74" width="200" height="51" as="geometry" />
        </mxCell>
        <mxCell id="bEj7zJRo_uIAJZZjoGcf-66" value="&lt;b&gt;prase_request_line函数&lt;/b&gt;" style="rounded=1;whiteSpace=wrap;html=1;" parent="1" vertex="1">
          <mxGeometry x="-22" y="227" width="200" height="51" as="geometry" />
        </mxCell>
        <mxCell id="bEj7zJRo_uIAJZZjoGcf-67" value="" style="endArrow=classic;html=1;rounded=0;" parent="1" edge="1">
          <mxGeometry width="50" height="50" relative="1" as="geometry">
            <mxPoint x="-207" y="99" as="sourcePoint" />
            <mxPoint x="16" y="207" as="targetPoint" />
          </mxGeometry>
        </mxCell>
        <mxCell id="bEj7zJRo_uIAJZZjoGcf-68" value="&lt;b&gt;解析请求行&lt;/b&gt;" style="text;html=1;align=center;verticalAlign=middle;resizable=0;points=[];autosize=1;strokeColor=none;fillColor=none;" parent="1" vertex="1">
          <mxGeometry x="-180" y="155" width="78" height="26" as="geometry" />
        </mxCell>
        <mxCell id="bEj7zJRo_uIAJZZjoGcf-69" value="" style="endArrow=classic;html=1;rounded=0;" parent="1" edge="1">
          <mxGeometry width="50" height="50" relative="1" as="geometry">
            <mxPoint x="95" y="207" as="sourcePoint" />
            <mxPoint x="297" y="98" as="targetPoint" />
          </mxGeometry>
        </mxCell>
        <mxCell id="bEj7zJRo_uIAJZZjoGcf-70" value="&lt;b&gt;解析完成&lt;/b&gt;" style="text;html=1;align=center;verticalAlign=middle;resizable=0;points=[];autosize=1;strokeColor=none;fillColor=none;" parent="1" vertex="1">
          <mxGeometry x="184" y="168" width="66" height="26" as="geometry" />
        </mxCell>
        <mxCell id="bEj7zJRo_uIAJZZjoGcf-71" value="" style="endArrow=classic;html=1;rounded=0;" parent="1" edge="1">
          <mxGeometry width="50" height="50" relative="1" as="geometry">
            <mxPoint x="471" y="278" as="sourcePoint" />
            <mxPoint x="471" y="130" as="targetPoint" />
          </mxGeometry>
        </mxCell>
        <mxCell id="bEj7zJRo_uIAJZZjoGcf-72" value="&lt;b&gt;读取一行数据&lt;/b&gt;" style="text;html=1;align=center;verticalAlign=middle;resizable=0;points=[];autosize=1;strokeColor=none;fillColor=none;" parent="1" vertex="1">
          <mxGeometry x="357" y="197" width="90" height="26" as="geometry" />
        </mxCell>
        <mxCell id="bEj7zJRo_uIAJZZjoGcf-73" value="&lt;b&gt;LINE_OK&lt;/b&gt;" style="text;html=1;align=center;verticalAlign=middle;resizable=0;points=[];autosize=1;strokeColor=none;fillColor=none;" parent="1" vertex="1">
          <mxGeometry x="492" y="197" width="70" height="26" as="geometry" />
        </mxCell>
        <mxCell id="bEj7zJRo_uIAJZZjoGcf-74" value="&lt;b&gt;CHECK_STATE_HEADER&lt;/b&gt;" style="rounded=1;whiteSpace=wrap;html=1;" parent="1" vertex="1">
          <mxGeometry x="375" y="70" width="200" height="51" as="geometry" />
        </mxCell>
        <mxCell id="bEj7zJRo_uIAJZZjoGcf-75" value="&lt;b&gt;prase_headers函数&lt;/b&gt;" style="rounded=1;whiteSpace=wrap;html=1;" parent="1" vertex="1">
          <mxGeometry x="766" y="223" width="200" height="51" as="geometry" />
        </mxCell>
        <mxCell id="bEj7zJRo_uIAJZZjoGcf-76" value="" style="endArrow=classic;html=1;rounded=0;" parent="1" edge="1">
          <mxGeometry width="50" height="50" relative="1" as="geometry">
            <mxPoint x="581" y="95" as="sourcePoint" />
            <mxPoint x="804" y="203" as="targetPoint" />
          </mxGeometry>
        </mxCell>
        <mxCell id="bEj7zJRo_uIAJZZjoGcf-77" value="&lt;b&gt;解析请求头&lt;/b&gt;" style="text;html=1;align=center;verticalAlign=middle;resizable=0;points=[];autosize=1;strokeColor=none;fillColor=none;" parent="1" vertex="1">
          <mxGeometry x="608" y="151" width="78" height="26" as="geometry" />
        </mxCell>
        <mxCell id="bEj7zJRo_uIAJZZjoGcf-78" value="" style="endArrow=classic;html=1;rounded=0;" parent="1" edge="1">
          <mxGeometry width="50" height="50" relative="1" as="geometry">
            <mxPoint x="883" y="203" as="sourcePoint" />
            <mxPoint x="1085" y="94" as="targetPoint" />
          </mxGeometry>
        </mxCell>
        <mxCell id="bEj7zJRo_uIAJZZjoGcf-79" value="&lt;b&gt;解析完成&lt;/b&gt;" style="text;html=1;align=center;verticalAlign=middle;resizable=0;points=[];autosize=1;strokeColor=none;fillColor=none;" parent="1" vertex="1">
          <mxGeometry x="972" y="164" width="66" height="26" as="geometry" />
        </mxCell>
        <mxCell id="bEj7zJRo_uIAJZZjoGcf-80" value="" style="endArrow=classic;html=1;rounded=0;" parent="1" edge="1">
          <mxGeometry width="50" height="50" relative="1" as="geometry">
            <mxPoint x="1260" y="274" as="sourcePoint" />
            <mxPoint x="1260" y="126" as="targetPoint" />
          </mxGeometry>
        </mxCell>
        <mxCell id="bEj7zJRo_uIAJZZjoGcf-81" value="&lt;b&gt;读取一行数据&lt;/b&gt;" style="text;html=1;align=center;verticalAlign=middle;resizable=0;points=[];autosize=1;strokeColor=none;fillColor=none;" parent="1" vertex="1">
          <mxGeometry x="1146" y="193" width="90" height="26" as="geometry" />
        </mxCell>
        <mxCell id="bEj7zJRo_uIAJZZjoGcf-82" value="&lt;b&gt;LINE_OPEN&lt;/b&gt;" style="text;html=1;align=center;verticalAlign=middle;resizable=0;points=[];autosize=1;strokeColor=none;fillColor=none;" parent="1" vertex="1">
          <mxGeometry x="1273" y="193" width="86" height="26" as="geometry" />
        </mxCell>
        <mxCell id="bEj7zJRo_uIAJZZjoGcf-83" value="&lt;b&gt;CHECK_STATE_CONTENT&lt;/b&gt;" style="rounded=1;whiteSpace=wrap;html=1;" parent="1" vertex="1">
          <mxGeometry x="1164" y="66" width="200" height="51" as="geometry" />
        </mxCell>
        <mxCell id="bEj7zJRo_uIAJZZjoGcf-84" value="prase_content函数" style="rounded=1;whiteSpace=wrap;html=1;fontStyle=1" parent="1" vertex="1">
          <mxGeometry x="1555" y="219" width="200" height="51" as="geometry" />
        </mxCell>
        <mxCell id="bEj7zJRo_uIAJZZjoGcf-85" value="" style="endArrow=classic;html=1;rounded=0;" parent="1" edge="1">
          <mxGeometry width="50" height="50" relative="1" as="geometry">
            <mxPoint x="1370" y="91" as="sourcePoint" />
            <mxPoint x="1593" y="199" as="targetPoint" />
          </mxGeometry>
        </mxCell>
        <mxCell id="bEj7zJRo_uIAJZZjoGcf-86" value="&lt;b&gt;解析消息体&lt;/b&gt;" style="text;html=1;align=center;verticalAlign=middle;resizable=0;points=[];autosize=1;strokeColor=none;fillColor=none;" parent="1" vertex="1">
          <mxGeometry x="1397" y="147" width="78" height="26" as="geometry" />
        </mxCell>
        <mxCell id="bEj7zJRo_uIAJZZjoGcf-87" value="" style="endArrow=classic;html=1;rounded=0;" parent="1" edge="1">
          <mxGeometry width="50" height="50" relative="1" as="geometry">
            <mxPoint x="1672" y="199" as="sourcePoint" />
            <mxPoint x="1669" y="-169" as="targetPoint" />
          </mxGeometry>
        </mxCell>
        <mxCell id="bEj7zJRo_uIAJZZjoGcf-88" value="&lt;b&gt;解析完成&lt;/b&gt;" style="text;html=1;align=center;verticalAlign=middle;resizable=0;points=[];autosize=1;strokeColor=none;fillColor=none;" parent="1" vertex="1">
          <mxGeometry x="1681" y="44" width="66" height="26" as="geometry" />
        </mxCell>
        <mxCell id="bEj7zJRo_uIAJZZjoGcf-89" value="&lt;b&gt;POST请求&lt;/b&gt;" style="text;html=1;align=center;verticalAlign=middle;resizable=0;points=[];autosize=1;strokeColor=none;fillColor=none;" parent="1" vertex="1">
          <mxGeometry x="927" y="121" width="75" height="26" as="geometry" />
        </mxCell>
        <mxCell id="bEj7zJRo_uIAJZZjoGcf-90" value="&lt;b&gt;POST请求&lt;/b&gt;" style="text;html=1;align=center;verticalAlign=middle;resizable=0;points=[];autosize=1;strokeColor=none;fillColor=none;" parent="1" vertex="1">
          <mxGeometry x="1680" y="74" width="75" height="26" as="geometry" />
        </mxCell>
        <mxCell id="bEj7zJRo_uIAJZZjoGcf-91" value="" style="endArrow=classic;html=1;rounded=0;" parent="1" edge="1">
          <mxGeometry width="50" height="50" relative="1" as="geometry">
            <mxPoint x="864" y="201" as="sourcePoint" />
            <mxPoint x="864" y="-166" as="targetPoint" />
          </mxGeometry>
        </mxCell>
        <mxCell id="bEj7zJRo_uIAJZZjoGcf-92" value="&lt;b&gt;解析完成&lt;/b&gt;" style="text;html=1;align=center;verticalAlign=middle;resizable=0;points=[];autosize=1;strokeColor=none;fillColor=none;" parent="1" vertex="1">
          <mxGeometry x="873" y="46" width="66" height="26" as="geometry" />
        </mxCell>
        <mxCell id="bEj7zJRo_uIAJZZjoGcf-93" value="&lt;b&gt;GET请求&lt;/b&gt;" style="text;html=1;align=center;verticalAlign=middle;resizable=0;points=[];autosize=1;strokeColor=none;fillColor=none;" parent="1" vertex="1">
          <mxGeometry x="876" y="76" width="67" height="26" as="geometry" />
        </mxCell>
        <mxCell id="bEj7zJRo_uIAJZZjoGcf-95" value="&lt;b&gt;do_request函数&lt;/b&gt;" style="rounded=1;whiteSpace=wrap;html=1;" parent="1" vertex="1">
          <mxGeometry x="792" y="-266" width="935" height="86" as="geometry" />
        </mxCell>
        <mxCell id="bEj7zJRo_uIAJZZjoGcf-97" value="&lt;b&gt;主状态机&lt;/b&gt;" style="rounded=1;whiteSpace=wrap;html=1;" parent="1" vertex="1">
          <mxGeometry x="-519.5" y="-53" width="200" height="51" as="geometry" />
        </mxCell>
      </root>
    </mxGraphModel>
  </diagram>
</mxfile>
